<svg viewBox="0 0 64 64" width="64" height="64" xmlns="http://www.w3.org/2000/svg" xml:space="preserve" style="fill-rule:evenodd;clip-rule:evenodd;stroke-linejoin:round;stroke-miterlimit:2"><path d="M10 23c-.55 0-1.021-.196-1.412-.587A1.927 1.927 0 0 1 8 21v-3c-.55 0-1.021-.196-1.412-.587A1.927 1.927 0 0 1 6 16V3c0-.55.196-1.021.588-1.413A1.926 1.926 0 0 1 8 1h8c.55 0 1.021.196 1.413.587.391.392.587.863.587 1.413v13a1.93 1.93 0 0 1-.587 1.413A1.93 1.93 0 0 1 16 18v3a1.93 1.93 0 0 1-.587 1.413A1.93 1.93 0 0 1 14 23h-4Zm2-10.5c.833 0 1.542-.292 2.125-.875A2.894 2.894 0 0 0 15 9.5c0-.833-.292-1.542-.875-2.125A2.894 2.894 0 0 0 12 6.5c-.833 0-1.542.292-2.125.875A2.894 2.894 0 0 0 9 9.5c0 .833.292 1.542.875 2.125A2.894 2.894 0 0 0 12 12.5ZM10 21h4v-3h-4v3Zm2-10.5a.965.965 0 0 1-.712-.288A.965.965 0 0 1 11 9.5c0-.283.096-.521.288-.712A.965.965 0 0 1 12 8.5c.283 0 .521.096.713.288A.968.968 0 0 1 13 9.5a.968.968 0 0 1-.287.712.969.969 0 0 1-.713.288Z" style="fill:#fff;fill-rule:nonzero" transform="translate(3.866 3.862) scale(2.34545)"/></svg>