<?xml version="1.0" encoding="UTF-8" standalone="no"?>
<svg
   xmlns:dc="http://purl.org/dc/elements/1.1/"
   xmlns:cc="http://creativecommons.org/ns#"
   xmlns:rdf="http://www.w3.org/1999/02/22-rdf-syntax-ns#"
   xmlns:svg="http://www.w3.org/2000/svg"
   xmlns="http://www.w3.org/2000/svg"
   xmlns:sodipodi="http://sodipodi.sourceforge.net/DTD/sodipodi-0.dtd"
   xmlns:inkscape="http://www.inkscape.org/namespaces/inkscape"
   version="1.1"
   viewBox="0 0 64 64"
   height="64"
   width="64"
   id="svg3767"
   sodipodi:docname="device-disabled.svg"
   inkscape:version="0.92.4 (5da689c313, 2019-01-14)">
  <metadata
     id="metadata3773">
    <rdf:RDF>
      <cc:Work
         rdf:about="">
        <dc:format>image/svg+xml</dc:format>
        <dc:type
           rdf:resource="http://purl.org/dc/dcmitype/StillImage" />
      </cc:Work>
    </rdf:RDF>
  </metadata>
  <defs
     id="defs3771" />
  <sodipodi:namedview
     pagecolor="#ffffff"
     bordercolor="#666666"
     borderopacity="1"
     objecttolerance="10"
     gridtolerance="10"
     guidetolerance="10"
     inkscape:pageopacity="0"
     inkscape:pageshadow="2"
     inkscape:window-width="1850"
     inkscape:window-height="1136"
     id="namedview3769"
     showgrid="false"
     inkscape:zoom="14.9375"
     inkscape:cx="32"
     inkscape:cy="29.322176"
     inkscape:window-x="1350"
     inkscape:window-y="27"
     inkscape:window-maximized="1"
     inkscape:current-layer="svg3767" />
  <g
     fill="#000"
     transform="translate(0 -988.36)"
     id="g3765">
    <path
       d="m49.201 6.3711l-8.931 8.9299-1.084-1.084c-0.719-0.719-1.875-0.719-2.594 0l-29.996 29.994c-0.7191 0.719-0.7191 1.875-0.0003 2.594l10.597 10.599c0.719 0.719 1.877 0.719 2.596 0l29.994-29.996c0.719-0.719 0.719-1.875 0-2.594l-0.795-0.796 8.93-8.93-8.717-8.7169zm-1.064 3.3144l1.17 1.1695-6.198 6.2-1.171-1.172 6.199-6.1975zm0.531 2.7305l1.172 1.172-5.129 5.129-1.172-1.17 5.129-5.131zm1.754 1.693l1.172 1.172-5.129 5.129-1.172-1.172 5.129-5.129zm2.783 0.623l1.17 1.172-6.197 6.198-1.172-1.17 6.199-6.2zm-27.705 16.268a3.5 3.5 0 0 1 3.461 3h7.039v1h-1v2h-1v-2h-1v1h-1v-1h-3.041a3.5 3.5 0 0 1 -3.459 3 3.5 3.5 0 0 1 -3.5 -3.5 3.5 3.5 0 0 1 3.5 -3.5zm0 1a2.5 2.4999 0 0 0 -2.5 2.5 2.5 2.4999 0 0 0 2.5 2.5 2.5 2.4999 0 0 0 2.5 -2.5 2.5 2.4999 0 0 0 -2.5 -2.5z"
       fill="#000"
       stroke-width=".11525px"
       fill-rule="evenodd"
       stroke="#fff"
       transform="translate(0 988.36)"
       id="path3763" />
  </g>
  <path
     style="stroke-width:0.0669456"
     d="M 17.961506,57.776321 C 17.851046,57.734699 17.640167,57.61707 17.492887,57.514924 17.00986,57.179921 6.4455795,46.531334 6.306564,46.239331 6.1042345,45.814336 6.1317179,45.124185 6.3680445,44.695459 6.5055838,44.445945 10.547144,40.365049 21.697498,29.216805 38.171879,12.745543 37.073091,13.793901 37.870051,13.786494 c 0.589142,-0.0055 0.9307,0.186411 1.727501,0.970504 l 0.694182,0.683112 4.466876,-4.466504 4.466877,-4.4665032 4.284136,4.2845282 4.284136,4.284528 -4.469175,4.469549 -4.469174,4.469548 0.505502,0.501158 c 0.624432,0.619067 0.848293,1.040069 0.848293,1.595336 0,0.816411 1.099961,-0.337492 -15.463482,16.221806 -11.086903,11.084128 -15.258185,15.213875 -15.476809,15.322702 -0.346609,0.172535 -1.007161,0.233195 -1.307408,0.120063 z m 8.23431,-19.771595 c 1.337023,-0.280711 2.365382,-1.228681 2.743371,-2.528917 l 0.111318,-0.382922 h 1.43458 1.43458 v 0.502092 0.502092 h 0.569038 0.569038 v -0.502092 -0.502092 h 0.435146 0.435146 v 1.004184 1.004184 h 0.569038 0.569038 v -1.004184 -1.004184 h 0.502092 0.502092 v -0.60251 -0.602511 h -3.508124 -3.508124 l -0.138099,-0.454663 c -0.269509,-0.887298 -0.983644,-1.724823 -1.822999,-2.137979 -0.55551,-0.27344 -0.902101,-0.349323 -1.604646,-0.351328 -1.98719,-0.0057 -3.543531,1.543623 -3.543531,3.527483 0,1.089681 0.277856,1.769238 1.036512,2.535008 0.530397,0.53537 1.081338,0.843916 1.775203,0.994175 0.567824,0.122965 0.869335,0.123837 1.439331,0.0042 z m 25.171467,-18.978704 3.145828,-3.146362 -0.652452,-0.652453 -0.652453,-0.652452 -3.146362,3.145828 c -1.730499,1.730206 -3.146363,3.175478 -3.146363,3.211717 0,0.08786 1.149695,1.240085 1.237365,1.240085 0.03774,0 1.484231,-1.415863 3.214437,-3.146363 z m -2.276123,-1.138102 2.610181,-2.610825 -0.652506,-0.652506 -0.652505,-0.652505 -2.626738,2.626738 -2.626738,2.626738 0.633945,0.636592 c 0.34867,0.350126 0.649748,0.636593 0.669063,0.636593 0.01931,0 1.209698,-1.174872 2.645298,-2.610825 z m -1.740586,-1.673641 2.610181,-2.610825 -0.652505,-0.652505 -0.652506,-0.652505 -2.626738,2.626738 -2.626738,2.626738 0.633946,0.636592 c 0.34867,0.350126 0.649748,0.636593 0.669062,0.636593 0.01931,0 1.209698,-1.174872 2.645298,-2.610826 z m -1.071157,-2.209177 3.145828,-3.146363 -0.652541,-0.652541 -0.652543,-0.6525422 -3.162303,3.1623032 -3.162303,3.162302 0.633955,0.636602 c 0.348675,0.350131 0.649732,0.636601 0.669017,0.636601 0.01928,0 1.450684,-1.415863 3.18089,-3.146362 z"
     id="path3775"
     inkscape:connector-curvature="0" />
  <path
     style="stroke-width:0.0669456;fill:#333333"
     d="M 17.861088,57.7453 C 17.602624,57.65376 16.769605,56.848021 11.996589,52.072859 8.1289453,48.203476 6.3958855,46.425496 6.3104417,46.239331 6.242845,46.09205 6.1744172,45.797415 6.1583799,45.584585 6.0952546,44.746855 4.8950235,46.011294 21.691096,29.220928 38.278182,12.639476 37.081682,13.777997 37.913988,13.784145 c 0.569325,0.0042 0.876157,0.182286 1.689619,0.980629 l 0.688127,0.675336 4.466876,-4.466504 4.466877,-4.4665032 4.284136,4.2845282 4.284136,4.284528 -4.469175,4.469549 -4.469174,4.469548 0.505502,0.501158 c 0.624432,0.619067 0.848293,1.040069 0.848293,1.595336 0,0.816411 1.099961,-0.337492 -15.463482,16.221806 C 23.65882,53.417684 19.487538,57.547431 19.268914,57.656258 18.881493,57.849109 18.264393,57.888139 17.861088,57.7453 Z M 26.58967,37.902072 c 1.061491,-0.328063 1.998964,-1.276919 2.326276,-2.354522 l 0.138099,-0.454663 h 1.43281 1.43281 v 0.502092 0.502092 h 0.569038 0.569038 v -0.502092 -0.502092 h 0.435146 0.435146 v 1.004184 1.004184 h 0.569038 0.569038 v -1.004184 -1.004184 h 0.502092 0.502092 v -0.60251 -0.602511 h -3.506249 -3.50625 l -0.148573,-0.462063 c -0.476241,-1.481111 -1.840892,-2.483544 -3.380947,-2.483544 -1.011199,0 -1.854021,0.342824 -2.547351,1.036154 -0.692704,0.692705 -1.036842,1.537882 -1.035358,2.542765 0.0014,0.92004 0.283062,1.668429 0.880211,2.338416 0.963216,1.080705 2.375007,1.471725 3.763894,1.042478 z m 24.774372,-18.872808 3.142588,-3.143121 -0.649671,-0.656042 -0.649671,-0.656042 -3.157911,3.1666 -3.157911,3.166601 0.629932,0.632563 c 0.346463,0.347909 0.64571,0.632562 0.664995,0.632562 0.01928,0 1.449226,-1.414405 3.177649,-3.143121 z m -2.27333,-1.140896 2.609734,-2.610378 -0.634341,-0.63699 -0.634341,-0.636989 -2.627966,2.627333 -2.627965,2.627333 0.617456,0.620034 c 0.339601,0.341019 0.633258,0.620034 0.652573,0.620034 0.01931,0 1.209497,-1.17467 2.64485,-2.610377 z m -1.740138,-1.674089 2.610181,-2.610825 -0.652505,-0.652505 -0.652506,-0.652505 -2.626738,2.626738 -2.626738,2.626738 0.633946,0.636592 c 0.34867,0.350126 0.649748,0.636593 0.669062,0.636593 0.01931,0 1.209698,-1.174872 2.645298,-2.610826 z m -1.071157,-2.209177 3.145828,-3.146363 -0.652541,-0.652541 -0.652543,-0.6525422 -3.162303,3.1623032 -3.162303,3.162302 0.633955,0.636602 c 0.348675,0.350131 0.649732,0.636601 0.669017,0.636601 0.01928,0 1.450684,-1.415863 3.18089,-3.146362 z"
     id="path3777"
     inkscape:connector-curvature="0" />
  <path
     style="fill:#666666;stroke-width:0.0669456"
     d="m 24.761781,36.794373 c -0.656109,-0.238441 -1.164869,-0.704189 -1.456414,-1.333285 -0.156966,-0.3387 -0.186377,-0.491107 -0.1876,-0.972119 -0.0013,-0.509881 0.02165,-0.617367 0.21612,-1.01239 0.258389,-0.524863 0.679298,-0.936444 1.210036,-1.183219 0.316698,-0.147254 0.474628,-0.176654 0.948964,-0.176654 0.475388,0 0.632037,0.02929 0.951837,0.177969 0.53485,0.248659 0.998442,0.703726 1.231961,1.209304 0.167203,0.362004 0.192771,0.497274 0.192771,1.01987 0,0.525311 -0.02417,0.651742 -0.188678,0.98674 -0.239487,0.487699 -0.678118,0.927467 -1.160432,1.163441 -0.476149,0.232959 -1.294575,0.288965 -1.758565,0.120343 z"
     id="path3779"
     inkscape:connector-curvature="0" />
  <path
     style="fill:#666666;stroke-width:0.0669456"
     d="M 17.827615,57.697503 C 17.4433,57.501245 6.4781677,46.526698 6.3159734,46.175977 6.2487759,46.030673 6.1812079,45.734468 6.1658222,45.517743 6.1393022,45.144178 6.1514477,45.105717 6.3995025,44.777749 6.5434123,44.587476 7.0632358,43.994979 7.5546658,43.461088 8.7407014,42.172575 34.082954,16.834326 35.663766,15.356429 c 1.424337,-1.331609 1.788111,-1.594859 2.180585,-1.57801 0.560875,0.02408 0.855588,0.190613 1.711932,0.967374 l 0.749719,0.680046 4.426266,-4.42589 c 2.434446,-2.4342398 4.456395,-4.4258904 4.49322,-4.4258904 0.03683,0 1.987477,1.9206986 4.334782,4.2682194 l 4.267829,4.268218 -4.470708,4.468858 -4.470707,4.468858 0.29151,0.283844 c 0.444522,0.432832 0.874014,1.034266 0.92227,1.291489 0.02382,0.126967 0.06255,0.23082 0.08607,0.230786 0.08135,-1.34e-4 0.02275,0.583195 -0.0782,0.778401 -0.05573,0.10778 -0.334653,0.466285 -0.61982,0.796679 -1.012058,1.172569 -29.667127,29.791094 -30.297298,30.258659 -0.0504,0.03739 -0.302508,0.07807 -0.560249,0.0904 -0.25774,0.01233 -0.483682,0.02992 -0.502092,0.0391 -0.01841,0.0092 -0.153975,-0.04485 -0.301255,-0.120066 z m 8.502092,-19.707602 c 0.07364,-0.02488 0.156485,-0.05049 0.184101,-0.0569 0.02762,-0.0064 0.06527,-0.01919 0.08368,-0.02839 0.01841,-0.0092 0.05607,-0.02104 0.08368,-0.0263 0.0949,-0.01807 0.719721,-0.335011 0.799164,-0.405379 0.04372,-0.03873 0.188651,-0.157929 0.322059,-0.264888 0.133408,-0.106959 0.372026,-0.363026 0.530261,-0.569038 0.29412,-0.382922 0.611506,-0.943604 0.534148,-0.943604 -0.02367,0 -0.01269,-0.03766 0.02438,-0.08368 0.03708,-0.04603 0.08835,-0.181589 0.113935,-0.301255 l 0.04652,-0.217573 h 1.434011 1.434011 v 0.502092 0.502092 h 0.569038 0.569038 v -0.502092 -0.502092 h 0.435146 0.435146 v 1.004184 1.004184 h 0.569038 0.569038 v -1.004184 -1.004184 h 0.502092 0.502092 l 1.5e-5,-0.585774 1.4e-5,-0.585774 -3.498429,0.01789 -3.498428,0.01789 -0.12549,-0.438183 c -0.06902,-0.241 -0.228314,-0.610556 -0.353987,-0.821235 -0.221142,-0.370723 -1.043697,-1.219873 -1.181668,-1.219873 -0.03734,0 -0.115446,-0.04131 -0.173576,-0.09179 -0.252433,-0.219238 -0.966129,-0.398252 -1.611966,-0.404322 -0.876658,-0.0082 -1.079182,0.03248 -1.740586,0.349958 -0.769268,0.369255 -1.518159,1.238798 -1.784743,2.072282 -0.129522,0.404954 -0.169183,1.558605 -0.06957,2.023665 0.169582,0.791726 1.036661,1.85778 1.820843,2.238685 0.57397,0.278797 0.635587,0.301849 0.970711,0.363163 0.32507,0.05947 1.288046,0.03418 1.506276,-0.03956 z m 25.037657,-18.964322 3.146444,-3.143411 -0.65289,-0.653796 -0.652891,-0.653796 -3.162302,3.162303 -3.162303,3.162303 0.633954,0.636602 c 0.348675,0.350131 0.649612,0.635837 0.66875,0.634904 0.01914,-9.31e-4 1.450694,-1.416232 3.181238,-3.145109 z m -2.276652,-1.137211 2.609734,-2.610378 -0.634341,-0.63699 -0.634341,-0.636989 -2.611698,2.610919 -2.611698,2.610918 0.602511,0.632773 c 0.33138,0.348025 0.617717,0.634427 0.636305,0.636448 0.01859,0.002 1.208175,-1.170994 2.643528,-2.606701 z m -1.756728,-1.71051 2.594236,-2.610442 -0.641104,-0.634754 -0.641104,-0.634754 -2.608536,2.640398 -2.608535,2.640398 0.620938,0.623531 c 0.341516,0.342943 0.636449,0.615102 0.655404,0.604798 0.01896,-0.0103 1.201872,-1.193432 2.628701,-2.629175 z m -0.854007,-2.369267 2.94525,-2.94987 -0.652533,-0.652532 -0.652533,-0.6525332 -3.146757,3.1467582 -3.146758,3.146757 0.619731,0.640317 0.619732,0.640317 0.234309,-0.184672 c 0.128871,-0.101569 1.559672,-1.512113 3.179559,-3.134542 z"
     id="path3781"
     inkscape:connector-curvature="0" />
  <path
     style="fill:#cccccc;stroke-width:0.0669456"
     d="m 24.522176,36.642374 c -0.582338,-0.276896 -1.30544,-1.115162 -1.30544,-1.513347 0,-0.0567 -0.02259,-0.103079 -0.05021,-0.10307 -0.02761,8e-6 -0.03336,-0.26359 -0.01276,-0.585774 0.04544,-0.71076 0.199455,-1.087146 0.635667,-1.553493 0.453264,-0.484575 0.919126,-0.692695 1.649934,-0.737093 0.324011,-0.01968 0.589103,-0.0132 0.589095,0.01442 -8e-6,0.02761 0.0527,0.05049 0.11714,0.05084 0.200628,0.0011 0.776492,0.372254 1.067741,0.688222 0.450438,0.488668 0.571667,0.790808 0.616732,1.537085 0.02168,0.358992 0.0177,0.660247 -0.0088,0.669456 -0.02654,0.0092 -0.05667,0.09206 -0.06696,0.184107 -0.01029,0.09205 -0.03532,0.182427 -0.05563,0.200837 -0.02031,0.01841 -0.14018,0.179071 -0.266387,0.357024 -0.282144,0.397826 -0.770067,0.764608 -1.182099,0.888612 -0.170463,0.0513 -0.538617,0.09325 -0.818121,0.09322 -0.420273,-4.4e-5 -0.577677,-0.03309 -0.909862,-0.191046 z"
     id="path3802"
     inkscape:connector-curvature="0" />
</svg>
